<?xml version="1.0" standalone="no"?>
<!DOCTYPE svg PUBLIC "-//W3C//DTD SVG 20010904//EN"
 "http://www.w3.org/TR/2001/REC-SVG-20010904/DTD/svg10.dtd">
<svg version="1.0" xmlns="http://www.w3.org/2000/svg"
 width="50.000000pt" height="50.000000pt" viewBox="0 0 50.000000 50.000000"
 preserveAspectRatio="xMidYMid meet">

<g transform="translate(0.000000,50.000000) scale(0.100000,-0.100000)"
fill="#12F7D6" stroke="none">
<path d="M243 357 c-106 -45 -198 -88 -204 -94 -18 -18 5 -40 52 -55 48 -14
53 -19 73 -91 17 -58 33 -70 56 -41 31 37 48 37 94 -1 50 -41 73 -44 86 -12
15 36 72 356 65 367 -3 5 -12 10 -18 10 -7 -1 -99 -38 -204 -83z m204 41 c-3
-13 -17 -90 -33 -173 -15 -82 -31 -154 -35 -159 -7 -8 -138 81 -139 95 0 4 37
50 81 103 45 53 79 99 75 103 -3 3 -60 -30 -127 -74 l-121 -81 -49 16 c-27 9
-46 19 -42 23 9 9 373 167 387 168 4 1 6 -9 3 -21z m-138 -115 c-8 -10 -32
-40 -55 -68 -23 -27 -46 -66 -51 -85 l-9 -35 -17 50 c-14 39 -15 51 -5 57 7 4
42 27 78 52 74 51 78 53 59 29z m-65 -152 c3 -5 -1 -14 -9 -21 -13 -10 -15 -9
-15 9 0 21 14 28 24 12z"/>
</g>
</svg>
